<?xml version="1.0" standalone="no"?>
<!DOCTYPE svg PUBLIC "-//W3C//DTD SVG 20010904//EN"
 "http://www.w3.org/TR/2001/REC-SVG-20010904/DTD/svg10.dtd">
<svg version="1.0" xmlns="http://www.w3.org/2000/svg"
 width="1536.000000pt" height="1024.000000pt" viewBox="0 0 1536.000000 1024.000000"
 preserveAspectRatio="xMidYMid meet">

<g transform="translate(0.000000,1024.000000) scale(0.100000,-0.100000)"
fill="#000000" stroke="none">
<path d="M1170 6550 c-63 -11 -111 -32 -154 -70 -69 -61 -96 -147 -96 -305 l0
-95 390 0 390 0 0 -749 c0 -734 0 -750 21 -817 17 -56 31 -79 73 -120 68 -69
119 -84 283 -84 141 0 132 -9 108 105 -12 58 -15 201 -15 868 0 752 1 797 18
798 9 0 107 2 217 5 356 8 423 21 466 90 24 39 39 140 39 266 0 86 -2 98 -19
108 -23 12 -1649 12 -1721 0z"/>
<path d="M4282 5513 l3 -1048 25 -45 c52 -92 160 -131 320 -113 l75 8 3 1020
c2 719 -1 1033 -8 1065 -15 58 -51 105 -103 132 -36 19 -61 23 -180 26 l-137
4 2 -1049z"/>
<path d="M4910 5436 l0 -1126 215 0 215 0 2 373 c0 204 1 380 0 390 -4 46 19
21 229 -253 73 -96 170 -221 214 -276 44 -56 103 -131 130 -167 l50 -66 258
-3 c141 -2 257 -2 257 0 0 3 -330 415 -512 639 -81 100 -148 187 -148 192 0 5
44 63 98 129 278 341 497 613 500 622 2 6 -87 10 -247 10 l-250 0 -143 -177
c-78 -98 -185 -230 -236 -293 -51 -63 -114 -143 -140 -177 -26 -35 -50 -63
-54 -63 -5 0 -8 269 -8 598 l0 598 -27 55 c-21 40 -40 61 -77 84 -48 29 -54
30 -188 33 l-138 4 0 -1126z"/>
<path d="M13822 5523 c3 -1029 3 -1038 24 -1083 31 -68 90 -116 161 -130 63
-13 219 -8 234 7 6 6 8 414 7 1044 l-3 1034 -22 40 c-54 100 -108 125 -278
125 l-126 0 3 -1037z"/>
<path d="M10063 5941 c-145 -23 -259 -80 -359 -177 l-52 -50 -33 45 c-44 59
-147 126 -234 154 -102 32 -280 31 -385 -2 -93 -29 -169 -67 -240 -120 -59
-44 -70 -49 -70 -27 0 7 -20 32 -44 54 -56 52 -120 71 -258 79 l-108 6 0 -797
0 -796 214 0 215 0 3 503 3 502 26 55 c34 74 79 123 137 152 40 19 62 23 147
23 118 0 176 -21 219 -78 57 -74 58 -87 63 -644 l5 -513 214 0 213 0 3 488 c4
533 4 535 66 632 56 88 205 138 317 105 102 -29 155 -102 175 -242 5 -37 10
-274 10 -525 l0 -458 210 0 210 0 0 588 c0 645 -1 655 -61 774 -42 82 -127
167 -209 206 -114 54 -282 81 -397 63z"/>
<path d="M7055 5926 c-199 -32 -347 -107 -471 -239 -149 -157 -224 -352 -224
-580 0 -121 17 -207 60 -311 139 -333 455 -531 820 -512 239 12 412 81 563
225 190 181 280 440 248 711 -42 347 -278 613 -616 696 -86 21 -283 26 -380
10z m324 -392 c86 -39 133 -84 174 -166 21 -40 42 -97 47 -127 13 -69 12 -213
-1 -270 -57 -250 -337 -388 -559 -276 -147 74 -230 224 -230 414 0 297 172
474 445 455 44 -3 89 -13 124 -30z"/>
<path d="M11380 5926 c-318 -59 -502 -273 -463 -541 29 -201 176 -328 488
-420 219 -65 270 -103 270 -203 0 -49 -3 -57 -37 -87 -44 -41 -91 -55 -183
-55 -113 1 -304 51 -473 126 -30 13 -56 24 -58 24 -2 0 -4 -79 -4 -175 l0
-175 32 -20 c47 -28 209 -77 318 -96 114 -20 322 -14 415 10 131 35 277 129
346 223 49 68 69 139 69 246 0 88 -2 99 -35 165 -70 139 -217 244 -465 332
-155 55 -191 72 -228 109 -62 62 -33 163 55 192 25 8 72 10 142 6 112 -6 191
-29 331 -96 36 -16 65 -29 67 -28 1 2 5 83 9 180 l7 177 -64 29 c-164 76 -376
106 -539 77z"/>
<path d="M3148 5920 c-164 -30 -341 -129 -445 -250 -219 -254 -261 -661 -100
-975 47 -93 167 -219 260 -274 213 -126 511 -167 771 -107 71 17 195 60 249
87 l37 19 0 154 c0 181 -4 191 -73 163 -23 -9 -85 -33 -137 -54 -92 -36 -99
-37 -244 -41 -216 -6 -316 19 -413 103 -47 40 -99 137 -109 203 l-7 42 521 0
521 0 13 23 c21 38 23 292 3 384 -35 159 -122 302 -237 388 -79 59 -112 76
-218 110 -70 22 -107 28 -215 31 -71 1 -151 -1 -177 -6z m286 -334 c102 -47
159 -130 181 -263 l7 -43 -337 0 -337 0 7 43 c24 155 106 252 242 287 61 15
179 3 237 -24z"/>
<path d="M12838 5920 c-213 -39 -409 -173 -514 -353 -91 -155 -129 -315 -121
-512 6 -151 22 -216 82 -340 167 -347 604 -509 1055 -391 93 24 232 77 255 96
19 16 20 289 2 314 -14 19 -17 19 -118 -21 -159 -63 -208 -73 -367 -73 -213 0
-329 40 -418 144 -38 44 -74 131 -74 176 l0 30 520 0 519 0 17 32 c27 52 24
299 -5 403 -37 133 -76 200 -171 296 -93 93 -171 140 -295 179 -79 24 -284 36
-367 20z m268 -329 c60 -27 112 -77 144 -141 27 -54 53 -154 42 -165 -10 -10
-652 -5 -652 5 0 5 5 33 11 62 37 175 174 277 349 262 36 -3 83 -14 106 -23z"/>
</g>
</svg>
