<?xml version="1.0" standalone="no"?>
<!DOCTYPE svg PUBLIC "-//W3C//DTD SVG 20010904//EN"
 "http://www.w3.org/TR/2001/REC-SVG-20010904/DTD/svg10.dtd">
<svg version="1.0" xmlns="http://www.w3.org/2000/svg"
 width="900.000000pt" height="600.000000pt" viewBox="0 0 900.000000 600.000000"
 preserveAspectRatio="xMidYMid meet">
<metadata>
Created by potrace 1.10, written by Peter Selinger 2001-2011
</metadata>
<g transform="translate(0.000000,600.000000) scale(0.100000,-0.100000)"
fill="#e50606" stroke="none">
<path d="M8104 3821 c-2 -2 -4 -272 -4 -599 0 -546 1 -599 18 -633 24 -52 63
-71 143 -67 l64 3 0 612 0 612 -34 35 c-31 32 -38 35 -108 38 -41 2 -77 1 -79
-1z"/>
<path d="M613 3792 c-52 -33 -75 -86 -71 -167 l3 -57 209 2 c145 0 212 -3 222
-11 12 -9 14 -85 14 -436 0 -519 4 -539 108 -584 28 -12 67 -19 109 -19 l65 0
-8 28 c-4 15 -9 248 -11 518 l-3 492 22 6 c13 3 93 6 178 6 200 0 212 6 230
108 6 38 10 85 8 103 l-3 34 -515 2 -515 2 -42 -27z"/>
<path d="M2510 3218 c0 -462 3 -609 13 -628 24 -47 73 -70 148 -70 l69 0 0
615 0 614 -35 36 c-35 34 -37 35 -115 35 l-80 0 0 -602z"/>
<path d="M2878 3813 c-2 -5 -2 -297 0 -650 l2 -643 115 0 115 0 0 225 c0 285
-4 283 145 84 43 -57 91 -120 107 -139 16 -19 32 -39 36 -45 4 -5 28 -36 52
-67 l45 -58 132 0 c73 0 133 3 133 6 0 6 -89 125 -100 134 -3 3 -59 71 -123
152 -65 81 -122 150 -127 153 -21 13 -9 59 28 103 20 24 57 70 82 102 85 109
165 205 188 228 13 12 21 26 17 31 -5 8 -265 7 -269 -1 -4 -7 -203 -255 -219
-273 -10 -11 -28 -33 -40 -49 -36 -47 -56 -66 -71 -66 -12 0 -15 56 -18 361
l-3 361 -35 29 c-31 26 -41 29 -112 29 -42 0 -78 -3 -80 -7z"/>
<path d="M1858 3455 c-4 -4 -29 -11 -55 -16 -79 -15 -121 -39 -197 -115 -73
-73 -100 -118 -112 -187 -3 -20 -10 -40 -15 -43 -5 -3 -9 -51 -9 -107 1 -148
43 -259 134 -347 16 -17 33 -30 37 -30 4 0 14 -6 21 -12 22 -20 78 -48 96 -48
9 0 31 -7 47 -16 36 -19 294 -25 316 -7 8 5 28 13 44 17 17 4 47 15 68 24 l37
16 0 88 c0 67 -3 88 -13 88 -8 0 -17 -3 -21 -7 -9 -9 -68 -30 -134 -48 -92
-26 -191 -16 -280 29 -45 21 -102 83 -102 108 0 8 -5 19 -11 25 -16 16 -2 50
24 57 12 3 149 6 303 6 l281 0 7 51 c8 58 -1 184 -15 214 -4 11 -13 31 -19 45
-39 95 -135 171 -255 200 -62 15 -168 24 -177 15z m152 -185 c41 -21 90 -76
90 -101 0 -10 5 -21 10 -24 6 -3 10 -19 10 -34 0 -38 -12 -41 -211 -41 -196 0
-203 3 -188 70 29 129 168 191 289 130z"/>
<path d="M4075 3441 c-181 -48 -291 -161 -332 -336 -25 -111 -26 -134 -8 -213
32 -135 102 -237 210 -306 94 -60 136 -71 277 -70 70 0 133 5 140 11 7 6 26
13 42 17 34 8 122 64 161 104 38 37 87 116 110 177 26 67 28 263 4 315 -9 19
-25 54 -35 78 -10 23 -21 42 -24 42 -4 0 -12 11 -18 24 -12 26 -107 101 -162
128 -102 49 -248 61 -365 29z m257 -208 c51 -28 108 -98 108 -133 0 -10 5 -22
10 -25 6 -3 10 -43 10 -88 0 -71 -4 -90 -30 -140 -47 -94 -115 -136 -219 -137
-141 0 -241 113 -241 275 0 166 94 272 244 274 57 1 77 -4 118 -26z"/>
<path d="M5260 3440 c-67 -25 -103 -43 -124 -62 -26 -24 -51 -23 -75 3 -31 34
-66 47 -128 49 -32 1 -63 2 -70 1 -9 -1 -12 -108 -10 -453 l2 -453 113 0 112
0 3 295 c2 257 4 299 19 325 28 49 70 84 122 99 43 13 56 13 104 1 117 -31
121 -45 129 -422 l6 -303 108 0 107 0 4 283 3 282 28 57 c33 67 71 94 142 102
68 8 113 -10 147 -59 25 -36 28 -53 38 -180 6 -77 9 -196 7 -265 -2 -69 -2
-146 1 -172 l5 -48 104 0 104 0 -3 378 -3 377 -29 45 c-16 25 -37 53 -46 62
-25 23 -91 58 -112 58 -9 0 -20 5 -23 10 -11 17 -172 12 -229 -7 -58 -20 -57
-20 -112 -67 -43 -38 -68 -45 -81 -23 -16 25 -92 77 -122 83 -17 4 -34 11 -37
15 -9 15 -156 7 -204 -11z"/>
<path d="M6620 3443 c-115 -38 -184 -96 -212 -180 -19 -54 -24 -128 -9 -137 4
-3 11 -19 14 -36 7 -32 87 -120 110 -120 7 0 18 -5 24 -11 13 -13 110 -48 133
-49 8 0 28 -7 44 -15 15 -8 34 -15 42 -15 7 0 27 -13 44 -30 42 -41 42 -91 -2
-132 -31 -29 -33 -29 -117 -25 -95 5 -167 19 -184 36 -6 6 -20 11 -31 11 -12
0 -30 7 -40 15 -10 8 -23 12 -27 9 -5 -3 -9 -43 -9 -89 0 -81 1 -84 29 -104
16 -12 37 -21 48 -21 10 -1 36 -7 58 -16 59 -21 264 -20 324 3 71 26 150 82
179 127 23 36 27 51 27 121 0 70 -4 85 -27 121 -29 45 -90 97 -125 108 -13 4
-23 12 -23 17 0 5 -5 9 -11 9 -6 0 -25 6 -42 14 -18 7 -60 24 -95 36 -66 24
-122 69 -122 99 0 17 26 61 44 73 21 15 177 9 214 -8 21 -9 52 -22 70 -30 18
-8 37 -14 42 -14 6 0 10 40 10 93 l0 93 -32 13 c-109 46 -266 62 -348 34z"/>
<path d="M7485 3441 c-33 -9 -77 -25 -98 -34 -46 -21 -152 -123 -162 -154 -3
-13 -11 -23 -16 -23 -5 0 -9 -5 -9 -11 0 -6 -6 -25 -14 -42 -8 -18 -22 -73
-31 -124 -16 -86 -16 -95 0 -165 32 -130 46 -159 115 -229 60 -60 155 -119
192 -119 8 0 19 -5 26 -12 8 -8 55 -12 139 -12 129 0 148 4 281 51 l42 16 0
83 c0 98 2 96 -100 63 -107 -35 -125 -39 -166 -39 -52 0 -161 24 -200 44 -39
20 -94 83 -94 107 0 10 -4 21 -10 24 -17 11 -11 44 10 55 13 7 121 10 306 10
176 -1 291 3 297 9 6 6 8 57 5 128 -4 110 -7 122 -37 178 -58 107 -143 170
-261 195 -88 19 -151 19 -215 1z m203 -175 c53 -33 101 -113 102 -167 0 -25
-29 -29 -210 -29 -176 0 -190 4 -190 47 0 29 39 104 64 123 76 57 169 68 234
26z"/>
</g>
</svg>
